# xmcd
#
# Track frame offsets:
#	150
#	13483
#	27343
#	39606
#	53499
#	66359
#	82920
#	95432
#	106553
#	119888
#	139355
#	156054
#	171758
#	187526
#	201416
#	213347
#	226768
#	248265
#	263970
#	277170
#	289666
#
# Disc length: 4069 seconds
#
# Revision: 2
# Processed by: cddbd v1.5.1PL2 Copyright (c) Steve Scherf et al.
# Submitted via: dBpowerAMP V4.0
#
DISCID=260fe315
DTITLE=Claude Francois - Intégrale 1962-1972 CD8
DYEAR=1900
DGENRE=Chansons
TTITLE0=Un Peu D'amour, Beaucoup de Haine
TTITLE1=Plus Rien Qu'une Adresse en Commun
TTITLE2=Comme un Jour Nouveau
TTITLE3=En Souvenir
TTITLE4=Aime Moi ou Quitte Moi
TTITLE5=Combien de Rivières (River Deep Mountain High)
TTITLE6=Donne un Peu de Rêve
TTITLE7=Et je Cours, je Cours
TTITLE8=Et je ne Pense Plus à Toi (Chicago)
TTITLE9=Un Jardin Dans Mon Coeur (You've Got a Friend)
TTITLE10=Y'a le Printemps Qui Chante
TTITLE11=Feu de Paille (American Pie)
TTITLE12=Pourvu Que je me Souvienne du Soleil
TTITLE13=Voleurs Bohémiens
TTITLE14=Merci, Merci Beaucoup
TTITLE15=Mais C'est Différent Déjà
TTITLE16=En Attendant
TTITLE17=Quand L'épicier Ouvre sa Boutique (Sh'diddle dum dom diddle)
TTITLE18=Je Chante Pour Les Gens Qui S'aiment (Softly Whispering I Love You)
TTITLE19=Elle Est au Bout de la Nuit
TTITLE20=Jésus Christ Superstar (Superstar)
EXTD=
EXTT0=
EXTT1=
EXTT2=
EXTT3=
EXTT4=
EXTT5=
EXTT6=
EXTT7=
EXTT8=
EXTT9=
EXTT10=
EXTT11=
EXTT12=
EXTT13=
EXTT14=
EXTT15=
EXTT16=
EXTT17=
EXTT18=
EXTT19=
EXTT20=
PLAYORDER=
